<?xml version="1.0" encoding="utf-8"?>
<!-- Generator: Adobe Illustrator 22.0.1, SVG Export Plug-In . SVG Version: 6.00 Build 0)  -->
<svg version="1.1" xmlns="http://www.w3.org/2000/svg" xmlns:xlink="http://www.w3.org/1999/xlink" x="0px" y="0px"
	 viewBox="0 0 512 512" style="enable-background:new 0 0 512 512;" xml:space="preserve">
<style type="text/css">
	.st0{fill:none;}
	.st1{fill:#ffffff;}
	.st2{fill:#FFD000;}
	.st3{fill:#FFE600;}
</style>
<g id="_x31_">
</g>
<g id="_x32_">
</g>
<g id="_x33_">
</g>
<g id="_x34_">
</g>
<g id="_x35_">
	<rect class="st0" width="512" height="512"/>
	<g>
		<g>
			<path class="st1" d="M48.6,510.9l-4-15.2h-20l-4,15.2h-8.1l17.2-59.6h9.9l17.2,59.6H48.6z M26.2,489.4h16.7l-8.3-31.7L26.2,489.4
				z"/>
			<path class="st1" d="M82.6,487v-6.4h22.4v6.4H82.6z"/>
			<path class="st1" d="M193.1,451.3l-10.6,59.6h-10.4l-9.5-50.8l-9.7,50.8h-10.2l-10.5-59.6h7.8l8.3,52.8l10-52.8h8.8l10,52.8
				l8.6-52.8H193.1z"/>
			<path class="st1" d="M232.1,451.3l-1,6.2h-20.6v19.7h17.9v6.2h-17.9v21.1h21.8v6.3h-29.9v-59.6H232.1z"/>
			<path class="st1" d="M279.8,494.1c0,5.7-1.9,9.9-5.7,12.7c-3.8,2.8-9.1,4.2-15.8,4.2h-15.2v-59.6H256c6.9,0,12.2,1.3,15.9,3.8
				c3.7,2.5,5.5,6.3,5.5,11.2c0,3.5-1,6.4-2.9,8.6c-1.9,2.2-4.5,3.7-7.7,4.5C275.5,480.8,279.8,485.7,279.8,494.1z M251.1,457.4
				v19.2h7.5c3.3,0,6-0.9,7.8-2.6c1.9-1.7,2.8-4.1,2.8-7.1c0-3.3-1-5.8-3.1-7.3c-2.1-1.5-5.2-2.3-9.4-2.3H251.1z M268.1,502.1
				c2.3-1.6,3.4-4.4,3.4-8.2c0-7.5-4.1-11.3-12.2-11.3h-8.1v21.9h7.3C262.6,504.5,265.9,503.7,268.1,502.1z"/>
			<path class="st1" d="M340.1,467.9c2,2.5,2.9,5.7,2.9,9.8v33.2h-7.7v-32.3c0-5.5-1.8-8.3-5.4-8.3c-3.5,0-6.6,2.7-9.5,8v32.7h-7.7
				v-32.3c0-5.5-1.8-8.3-5.4-8.3c-3.5,0-6.7,2.7-9.5,8v32.7h-7.7v-45.6h6.8l0.6,6.7c3.3-5.2,7.4-7.8,12.1-7.8c2.5,0,4.6,0.7,6.3,2.2
				c1.7,1.4,3,3.5,3.7,6.2c3.5-5.5,7.7-8.3,12.6-8.3C335.5,464.2,338.2,465.4,340.1,467.9z"/>
			<path class="st1" d="M388.6,490.8H362c0.2,5.3,1.3,9.1,3.2,11.5c1.9,2.3,4.5,3.5,7.8,3.5c2.1,0,3.9-0.3,5.6-1
				c1.6-0.6,3.4-1.7,5.2-3.1l3.5,4.6c-4.3,3.8-9.1,5.7-14.6,5.7c-5.9,0-10.6-2.1-13.8-6.2c-3.3-4.1-4.9-9.9-4.9-17.4
				c0-7.5,1.6-13.4,4.7-17.7c3.1-4.4,7.5-6.5,13-6.5c5.5,0,9.7,1.9,12.6,5.8c2.9,3.9,4.4,9.5,4.4,16.7
				C388.7,487.9,388.7,489.3,388.6,490.8z M381.2,484.4c0-9.5-3.1-14.3-9.4-14.3c-2.9,0-5.2,1.2-6.8,3.6c-1.7,2.4-2.6,6.3-2.9,11.7
				h19.1V484.4z"/>
			<path class="st1" d="M432,446.8v64H425l-0.5-6c-2.9,4.7-6.9,7.1-11.9,7.1c-5,0-8.8-2.1-11.6-6.3c-2.7-4.2-4.1-10-4.1-17.4
				c0-4.8,0.7-9,2-12.7c1.4-3.6,3.3-6.5,5.8-8.4c2.5-2,5.3-3,8.6-3c4.3,0,7.9,1.8,10.8,5.5V446L432,446.8z M419.9,504.1
				c1.5-1.2,3-2.9,4.3-5.1v-22.9c-2.6-3.9-5.6-5.8-9.1-5.8c-3.1,0-5.5,1.5-7.3,4.4c-1.8,2.9-2.7,7.4-2.6,13.3
				c0,6.1,0.8,10.5,2.4,13.4c1.6,2.9,3.9,4.3,6.8,4.3C416.5,505.8,418.4,505.3,419.9,504.1z"/>
			<path class="st1" d="M453.6,445.3c1,1,1.4,2.2,1.4,3.6c0,1.4-0.5,2.6-1.4,3.6c-0.9,1-2.2,1.4-3.7,1.4c-1.5,0-2.7-0.5-3.7-1.4
				s-1.4-2.2-1.4-3.6c0-1.4,0.5-2.7,1.4-3.6c1-1,2.2-1.5,3.7-1.5C451.4,443.8,452.6,444.3,453.6,445.3z M453.8,465.3v45.6H446v-45.6
				H453.8z"/>
			<path class="st1" d="M497,504.6c0.5,0.9,1.3,1.6,2.4,2l-1.6,5.3c-2.3-0.3-4-1-5.3-2.1c-1.3-1-2.2-2.6-2.7-4.8
				c-2.9,4.6-7.1,6.9-12.4,6.9c-4,0-7.2-1.3-9.6-3.8c-2.4-2.5-3.6-5.9-3.6-10.1c0-4.9,1.6-8.5,4.8-11.1c3.2-2.5,7.7-3.8,13.6-3.8
				h5.9v-3.9c0-3.2-0.7-5.5-1.9-6.9s-3.4-2.1-6.4-2.1c-3.2,0-6.9,0.8-11.1,2.4l-1.9-5.5c5.1-2.1,9.8-3.1,14.2-3.1
				c9.9,0,14.8,4.9,14.8,14.8v21.5C496.3,502.3,496.5,503.7,497,504.6z M488.5,499v-10.7h-5c-7.5,0-11.3,3.1-11.3,9.4
				c0,2.7,0.6,4.8,1.8,6.2c1.2,1.4,2.9,2.2,5.2,2.2C483.3,506.1,486.4,503.7,488.5,499z"/>
		</g>
		<g id="GIN_5_">
			<g>
				<path class="st2" d="M490.6,406.2c-0.8,1.3-2.1,2.1-3.7,2.1H25.1c-2.2,0-3.3-1.5-3.7-2.1c-0.4-0.6-1.1-2.3,0-4.2l16.9-29.3
					l0.1-0.2l17.8-30.9h38l-19.5,33.8h362.3l-19.5-33.8h38l34.9,60.4C491.7,403.9,491,405.6,490.6,406.2z"/>
				<path class="st2" d="M366.1,186.4h-38L256,61.6L236.2,96L117.6,301.2h-38L252.3,2c1.6-2.7,5.8-2.7,7.3,0L366.1,186.4z"/>
				<polygon class="st2" points="432.4,301.2 394.4,301.2 367,253.8 405.1,253.8 				"/>
			</g>
			<g>
				<g>
					<path class="st3" d="M486.9,408.3H25.1c-2.2,0-3.3-1.5-3.7-2.1c-0.4-0.6-1.1-2.3,0-4.2L63,341.6h31.3l-19.5,33.8L486.9,408.3z"
						/>
					<polygon class="st3" points="393.4,233.7 177.8,233.7 193.5,206.5 377.8,206.5 					"/>
					<polygon class="st3" points="256,61.6 236.2,96 117.6,301.2 90.8,301.2 					"/>
				</g>
			</g>
		</g>
	</g>
</g>
<g id="_x36_">
</g>
<g id="_x37_">
</g>
<g id="_x38_">
</g>
<g id="_x39_">
</g>
<g id="_x31_0">
</g>
</svg>
