<?xml version="1.0" encoding="utf-8"?>
<!-- Generator: Adobe Illustrator 23.0.1, SVG Export Plug-In . SVG Version: 6.00 Build 0)  -->
<svg version="1.1" id="Слой_1" xmlns="http://www.w3.org/2000/svg" xmlns:xlink="http://www.w3.org/1999/xlink" x="0px" y="0px"
	 viewBox="0 0 314 228" style="enable-background:new 0 0 314 228;" xml:space="preserve">
<style type="text/css">
	.st0{fill:#111111;}
	.st1{fill:#FFD000;}
</style>
<path class="st0" d="M22.1,222.4H11l-1.7,5.1H0l12.3-31.4h8.5l12.6,31.4h-9.5L22.1,222.4z M16.6,205.9l-3.4,9.8H20L16.6,205.9z"/>
<path class="st0" d="M35.9,211.2h16.4v7.6H35.9V211.2z"/>
<path class="st0" d="M101,196.1l-9.7,31.4h-7.6l-6-15.2l-5.9,15.2h-7.6l-9.9-31.4h9.3l5.1,18.1l7.5-17.9h3l7.6,18l5-18.1L101,196.1
	L101,196.1z"/>
<path class="st0" d="M125.7,220v7.5h-20.5v-31.4h20.1v7.5h-11.5v4.6h10.3v7.1h-10.3v4.7L125.7,220L125.7,220z"/>
<path class="st0" d="M151.4,210.9c3,1.4,4.8,4.2,4.8,7.7c0,5.1-4.4,8.9-10.2,8.9h-14.5v-31.4h14.2c5.5,0,9.6,3.4,9.6,8
	C155.4,206.9,153.9,209.4,151.4,210.9z M147.2,205.5c0-1.6-1.1-2.7-2.9-2.7h-4.4v5.5h4.4C146.1,208.3,147.2,207.2,147.2,205.5z
	 M147.7,217.5c0-1.7-1.2-2.9-3.1-2.9h-4.7v5.7h4.7C146.5,220.4,147.7,219.2,147.7,217.5z"/>
<path class="st0" d="M192.8,227.5l-2.5-18.1l-8.4,18.2h-2.5l-8.4-18.2l-2.4,18.1h-8.8l4.7-31.4h8.6l7.4,17.1l7.4-17.1h8.6l4.7,31.4
	H192.8z"/>
<path class="st0" d="M227.2,220v7.5h-20.5v-31.4h20.1v7.5h-11.5v4.6h10.3v7.1h-10.3v4.7L227.2,220L227.2,220z"/>
<path class="st0" d="M262,211.7c0,9.2-6.7,15.7-16.2,15.7h-12.7V196h12.7C255.3,196.1,262,202.6,262,211.7z M253.2,211.7
	c0-4.7-3.1-7.8-7.8-7.8h-3.6v15.6h3.6C250,219.5,253.2,216.4,253.2,211.7z"/>
<path class="st0" d="M267.4,196.1h8.8v31.4h-8.8V196.1z"/>
<path class="st0" d="M302.3,222.4h-11.2l-1.7,5.1h-9.3l12.3-31.4h8.5l12.6,31.4H304L302.3,222.4z M296.7,205.9l-3.4,9.8h6.9
	L296.7,205.9z"/>
<path class="st1" d="M86.6,135.7c-10.1-14.1-16.1-31.3-16.1-49.9C70.5,38.4,108.9,0,156.3,0C203.6,0,242,38.4,242,85.8
	c0,18.3-5.7,35.2-15.5,49.2L156.8,14.1L86.6,135.7z M100.7,151.1c1.2,1.1,2.5,2.1,3.9,3.1l55.1-95.3l-2.9-4.9L100.7,151.1z
	 M210.7,147.4h-66.5v-5.2h63.6l-3.5-6.1h-60.1l11.5-19.9h37.1L162.7,64l-53.8,93.2c13.6,9.1,29.9,14.3,47.5,14.3
	c21.5,0,41.2-7.9,56.2-21L210.7,147.4z"/>
</svg>
