<?xml version="1.0" encoding="utf-8"?>
<!-- Generator: Adobe Illustrator 23.0.1, SVG Export Plug-In . SVG Version: 6.00 Build 0)  -->
<svg version="1.1" id="Слой_1" xmlns="http://www.w3.org/2000/svg" xmlns:xlink="http://www.w3.org/1999/xlink" x="0px" y="0px"
	 viewBox="0 0 19.8 19.8" style="enable-background:new 0 0 19.8 19.8;" xml:space="preserve">
<style type="text/css">
	.st0{fill:#2E2E2E;}
</style>
<g>
	<g id="Слой_1-2">
		<g>
			<g>
				<rect x="12.5" y="6.5" class="st0" width="3" height="0.8"/>
				<path class="st0" d="M8.8,9.5C9,9.4,9.3,9.2,9.5,8.9C9.7,8.6,9.8,8.3,9.8,8c0-0.3-0.1-0.6-0.2-0.9C9.5,6.9,9.3,6.7,9.1,6.5
					C8.9,6.4,8.6,6.3,8.4,6.2C8,6.1,7.7,6.1,7.3,6.1H3.8v7.5h3.7c0.3,0,0.7-0.1,1-0.2C8.8,13.3,9,13.2,9.3,13
					c0.3-0.2,0.5-0.4,0.6-0.7C10,12,10,11.7,10,11.4c0-0.4-0.1-0.9-0.3-1.2C9.5,9.9,9.1,9.6,8.8,9.5z M5.5,7.4h2
					c0.2,0.1,0.3,0.1,0.4,0.1c0.1,0,0.2,0.2,0.2,0.2c0.1,0.1,0.1,0.3,0.1,0.5c0,0.3-0.1,0.5-0.3,0.7h0C7.6,9.1,7.4,9.1,7.2,9.1H5.5
					V7.4z M8.4,11.7c-0.1,0.1-0.2,0.2-0.3,0.3c-0.1,0.1-0.2,0.2-0.4,0.2c-0.1,0.1-0.3,0.1-0.5,0.1H5.5v-2.1h1.8c0.3,0,0.6,0,0.9,0.2
					c0.2,0.2,0.3,0.5,0.3,0.8C8.5,11.4,8.4,11.6,8.4,11.7z"/>
				<path class="st0" d="M16.6,10c-0.1-0.4-0.2-0.7-0.5-1c-0.2-0.3-0.5-0.5-0.8-0.7C14.9,8.1,14.5,8,14.1,8c-0.4,0-0.7,0.1-1.1,0.2
					c-0.3,0.2-0.6,0.4-0.9,0.6c-0.3,0.2-0.5,0.6-0.5,0.9c-0.1,0.4-0.2,0.7-0.2,1.1c0,0.4,0,0.8,0.2,1.1c0.1,0.4,0.3,0.7,0.5,1
					c0.2,0.2,0.5,0.4,0.8,0.6c0.4,0.1,0.7,0.2,1.1,0.2c0.6,0,1.1-0.2,1.6-0.5c0.5-0.3,0.8-0.8,1-1.4h-1.3c-0.1,0.2-0.2,0.3-0.4,0.4
					c-0.2,0.2-0.5,0.2-0.8,0.2c-0.4,0-0.7-0.1-1-0.3c-0.3-0.3-0.4-0.8-0.4-1.2h3.9C16.7,10.8,16.7,10.4,16.6,10z M12.8,10.3
					c0-0.1,0-0.3,0.1-0.4c0.1-0.1,0.1-0.3,0.2-0.4c0.1-0.1,0.2-0.2,0.4-0.3c0.2-0.1,0.4-0.2,0.6-0.2c0.3,0,0.6,0.2,0.8,0.4
					c0.2,0.3,0.3,0.5,0.4,0.8H12.8z"/>
			</g>
		</g>
	</g>
</g>
</svg>
