<?xml version="1.0" encoding="utf-8"?>
<!-- Generator: Adobe Illustrator 23.0.1, SVG Export Plug-In . SVG Version: 6.00 Build 0)  -->
<svg version="1.1" id="Слой_1" xmlns="http://www.w3.org/2000/svg" xmlns:xlink="http://www.w3.org/1999/xlink" x="0px" y="0px"
	 viewBox="0 0 21.6 21.6" style="enable-background:new 0 0 21.6 21.6;" xml:space="preserve">
<style type="text/css">
	.st0{fill:#303030;}
</style>
<g>
	<g id="Слой_1-2">
		<path class="st0" d="M18,4.5c0,0.5-0.4,0.9-0.9,0.9S16.2,5,16.2,4.5s0.4-0.9,0.9-0.9S18,4,18,4.5z"/>
		<path class="st0" d="M10.8,5.4C9.3,5.4,8,6,7,7c-1,1-1.6,2.3-1.6,3.8c0,3,2.4,5.4,5.4,5.4c3,0,5.4-2.4,5.4-5.4
			C16.2,7.8,13.8,5.4,10.8,5.4z M10.9,14.4c-2,0-3.6-1.5-3.7-3.5c0-2,1.5-3.6,3.5-3.7c1,0,1.9,0.4,2.5,1c0.7,0.7,1.1,1.6,1.1,2.5
			C14.5,12.7,12.9,14.3,10.9,14.4z"/>
	</g>
</g>
</svg>
