<?xml version="1.0" encoding="utf-8"?>
<!-- Generator: Adobe Illustrator 23.0.1, SVG Export Plug-In . SVG Version: 6.00 Build 0)  -->
<svg version="1.1" id="Слой_1" xmlns="http://www.w3.org/2000/svg" xmlns:xlink="http://www.w3.org/1999/xlink" x="0px" y="0px"
	 viewBox="0 0 19.8 19.8" style="enable-background:new 0 0 19.8 19.8;" xml:space="preserve">
<style type="text/css">
	.st0{fill:#303030;}
</style>
<g>
	<g id="Слой_1-2">
		<path class="st0" d="M15.6,13.5h-1.7c-0.3,0-0.6-0.1-0.8-0.3c-0.6-0.4-1.2-1.6-1.7-1.4C11,12,11,13,11,13c0,0.1,0,0.2-0.1,0.3
			c-0.1,0.1-0.2,0.1-0.3,0.1H9.8c-1.2,0-2.3-0.5-3.1-1.4c-1.2-1.5-2.2-3.2-3-5c0,0-0.1-0.2,0-0.3C3.8,6.7,3.9,6.6,4,6.6h1.8
			c0.1,0,0.2,0,0.3,0.1C6.2,6.8,6.2,6.9,6.3,7c0.2,0.5,0.4,1,0.7,1.4C7.7,9.6,8,9.9,8.3,9.8C8.6,9.7,8.5,8,8.5,8
			c0-0.3,0-0.6-0.2-0.9C8.2,7,8,6.9,7.8,6.9c-0.1,0,0.1-0.3,0.3-0.4c0.5-0.2,1-0.2,1.6-0.2c0.3,0,0.6,0,0.9,0.1
			C11.2,6.5,11,7.1,11,8.5c0,0.4-0.1,1.1,0.2,1.3c0.1,0.1,0.5,0,1.3-1.4c0.3-0.5,0.5-1,0.7-1.5c0-0.1,0.1-0.2,0.2-0.2
			c0.1,0,0.2,0,0.2,0h1.9c0,0,0.6-0.1,0.7,0.2c0.1,0.3-0.2,0.9-1,1.9c-1.3,1.7-1.4,1.5-0.3,2.5c0.5,0.4,0.9,0.9,1.3,1.4
			C16.5,13.4,15.6,13.5,15.6,13.5z"/>
	</g>
</g>
</svg>
